<?xml version="1.0" standalone="no"?>

<svg version="1.0" xmlns="http://www.w3.org/2000/svg"
 width="512.000000pt" height="512.000000pt" viewBox="0 0 512.000000 512.000000"
 preserveAspectRatio="xMidYMid meet" fill="url(#svg_grd)">
 <linearGradient id="svg_grd" gradientTransform="rotate(45)">
     <stop offset="0" stop-color="#c63e00"/>
     <stop offset="1" stop-color="#ff9000"/>
 </linearGradient>
<g transform="translate(0.000000,512.000000) scale(0.100000, -0.10000)" stroke="none">
<path d="M4375 4937 c-70 -24 -127 -58 -182 -109 -105 -100 -133 -177 -142
-383 l-6 -150 -60 -24 c-267 -105 -761 -161 -1440 -161 -669 0 -1143 53 -1427
160 l-58 21 0 119 c0 179 -37 278 -139 373 -63 59 -154 103 -241 116 -226 36
-451 -121 -499 -347 -16 -75 -16 -3879 0 -3954 48 -226 275 -385 498 -349 82
13 178 58 234 110 l44 41 44 -16 c371 -132 1202 -199 2034 -164 482 20 842 68
1096 146 l85 26 38 -26 c74 -50 143 -69 246 -69 74 0 107 5 152 22 125 48 222
148 270 276 l23 60 3 1920 c2 1320 -1 1942 -8 1990 -23 151 -113 276 -248 343
-70 34 -82 37 -176 39 -64 2 -116 -2 -141 -10z m254 -201 c57 -37 90 -72 111
-121 19 -43 33 -119 22 -113 -139 72 -142 73 -262 73 -111 0 -117 -1 -185 -35
-38 -19 -74 -36 -79 -38 -16 -8 6 83 32 131 51 95 131 139 242 134 61 -3 83
-9 119 -31z m-3885 -45 c74 -46 136 -140 136 -207 l0 -30 -67 33 c-132 64
-268 63 -397 -2 l-69 -35 7 45 c15 112 110 208 221 225 55 8 129 -5 169 -29z
m3887 -325 c57 -38 88 -72 113 -126 21 -45 21 -45 24 -1385 1 -736 1 -1344 -2
-1351 -3 -8 -21 -6 -63 9 -91 31 -266 35 -373 8 -46 -11 -88 -21 -92 -21 -5 0
-7 609 -6 1353 l3 1352 29 53 c56 101 134 144 248 139 64 -3 84 -8 119 -31z
m-3887 -45 c52 -32 87 -72 112 -126 l24 -50 0 -1349 0 -1348 -22 6 c-118 34
-153 39 -243 39 -71 0 -122 -6 -178 -22 -42 -11 -80 -21 -82 -21 -3 0 -4 611
-3 1358 3 1301 4 1358 22 1392 41 78 121 138 201 150 55 8 129 -5 169 -29z
m3308 -1948 c3 -1664 4 -1730 22 -1777 23 -58 24 -57 -96 -85 -341 -82 -741
-115 -1378 -115 -648 0 -1071 36 -1402 120 -153 38 -152 37 -144 85 4 23 6
817 6 1765 0 1464 2 1724 14 1724 7 0 33 -7 57 -16 125 -44 404 -92 704 -121
230 -22 1146 -25 1375 -5 345 31 635 81 785 136 22 8 43 15 47 15 4 1 9 -776
10 -1726z m628 -1043 c88 -37 90 -40 90 -142 0 -49 -3 -88 -7 -86 -102 51
-149 69 -203 77 -102 14 -205 -7 -292 -59 l-38 -22 0 97 0 96 56 25 c85 38
120 43 234 40 83 -2 117 -8 160 -26z m-3935 -32 c22 -5 61 -19 88 -30 l47 -20
0 -100 0 -99 -30 21 c-17 12 -54 30 -83 40 -121 42 -232 35 -349 -23 l-68 -33
0 93 0 93 52 26 c97 49 230 61 343 32z m3861 -317 c23 -10 58 -36 79 -56 53
-53 75 -107 75 -185 0 -231 -261 -351 -433 -200 -64 57 -91 116 -89 201 2 106
52 187 144 233 65 33 161 35 224 7z m-3922 -35 c114 -35 185 -121 194 -235 4
-58 1 -77 -20 -122 -81 -176 -287 -218 -426 -86 -57 54 -77 102 -76 187 0 86
20 135 76 186 53 49 67 57 116 70 62 17 80 17 136 0z"/>
<path d="M3110 3195 l-64 -65 77 -78 77 -77 -77 -78 -78 -77 65 -65 64 -65 78
77 78 78 78 -78 78 -77 64 65 65 65 -78 77 -77 78 77 77 77 78 -64 65 -64 65
-78 -77 -78 -78 -78 78 -78 77 -64 -65z"/>
<path d="M3305 2561 l-50 -6 3 -35 c4 -49 33 -224 38 -229 2 -2 42 4 90 14
l86 18 -7 36 c-4 20 -13 74 -19 121 l-11 85 -40 1 c-22 1 -62 -1 -90 -5z"/>
<path d="M2090 2033 l0 -90 40 -7 c26 -4 54 -19 78 -40 l38 -35 67 52 c36 29
66 57 67 64 0 18 -80 83 -137 110 -28 13 -74 26 -102 30 l-51 6 0 -90z"/>
<path d="M3457 2044 c-43 -12 -80 -24 -83 -27 -3 -3 2 -39 10 -81 9 -41 16
-93 16 -116 l0 -40 59 0 c32 0 73 3 90 6 29 6 31 9 31 49 0 46 -23 176 -37
211 l-8 20 -78 -22z"/>
<path d="M1730 1979 c-46 -48 -113 -151 -122 -187 -2 -8 28 -26 76 -46 l80
-33 34 56 c18 31 47 70 63 87 l29 30 -54 73 -55 73 -51 -53z"/>
<path d="M2440 1679 c-41 -17 -76 -32 -77 -33 -9 -8 102 -246 114 -246 5 0
137 74 151 85 2 1 -6 18 -17 36 -11 19 -34 69 -52 112 -17 42 -35 77 -38 76
-3 0 -40 -14 -81 -30z"/>
<path d="M3340 1526 c-21 -34 -73 -86 -105 -104 -15 -8 -12 -18 26 -85 24 -42
47 -77 50 -77 3 0 31 18 61 40 54 38 148 149 148 174 0 9 -138 86 -154 86 -3
0 -14 -15 -26 -34z"/>
<path d="M1525 1491 c-3 -2 -5 -17 -5 -32 0 -22 -8 -31 -42 -48 -65 -31 -111
-73 -143 -132 -27 -49 -30 -62 -30 -149 0 -79 4 -102 23 -137 99 -186 349
-225 494 -78 116 117 117 312 4 428 -23 24 -61 52 -84 62 -31 14 -42 25 -44
44 -3 24 -8 26 -86 36 -45 6 -85 9 -87 6z m130 -245 c102 -43 96 -195 -9 -235
-80 -30 -166 33 -166 123 0 48 19 80 64 107 37 23 65 24 111 5z"/>
<path d="M2775 1330 c-7 -12 -55 -143 -55 -150 0 -17 117 -32 203 -27 48 2 90
7 93 9 2 3 -1 43 -8 88 l-13 84 -108 0 c-60 1 -110 -1 -112 -4z"/>
</g>
</svg>
