<?xml version="1.0" encoding="iso-8859-1"?>

<svg xmlns="http://www.w3.org/2000/svg" width="512" height="512" viewBox="0 0 512 512" version="1.1" fill="url(#svg_grd)">
	<linearGradient id="svg_grd" gradientUnits="userSpaceOnUse"
  x1="0" y1="512" x2="512" y2="0">
      <stop offset="0" stop-color="#c63e00"/>
      <stop offset="1" stop-color="#ff9000"/>
  </linearGradient>
	<path d="M 261.051 1.148 C 237.302 3.628, 211.917 11.010, 189.500 21.954 C 166.145 33.357, 150.023 44.882, 131.453 63.453 C 113.115 81.791, 101.613 97.811, 90.080 121.076 C 78.899 143.633, 71.644 169.079, 69.044 194.856 C 68.369 201.554, 68 258.529, 68 356.151 L 68 507.091 70.455 509.545 C 74.271 513.361, 78.187 512.821, 83.793 507.703 C 86.382 505.340, 97.377 495.191, 108.226 485.149 L 127.952 466.891 151.493 488.696 C 164.440 500.688, 176.151 510.924, 177.517 511.443 C 179.072 512.034, 180.915 512.034, 182.448 511.443 C 183.795 510.924, 195.500 500.683, 208.460 488.684 L 232.023 466.868 251.761 485.137 C 262.618 495.186, 273.618 505.340, 276.207 507.703 C 279.578 510.780, 281.773 512, 283.937 512 C 287.258 512, 287.328 511.942, 318.196 483.341 L 335.893 466.945 359.696 488.985 C 372.788 501.107, 384.576 511.309, 385.890 511.656 C 387.205 512.003, 389.319 511.885, 390.589 511.394 C 391.858 510.902, 403.500 500.683, 416.460 488.684 L 440.023 466.868 459.761 485.137 C 470.618 495.186, 481.618 505.340, 484.207 507.703 C 489.813 512.821, 493.729 513.361, 497.545 509.545 L 500 507.091 500 356.151 C 500 258.529, 499.631 201.554, 498.956 194.856 C 492.305 128.904, 456.789 70.904, 400.478 34.034 C 361.393 8.442, 309.166 -3.876, 261.051 1.148 M 264.500 17.018 C 253.705 18.231, 240.854 20.618, 231.896 23.074 C 163.209 41.900, 109.245 95.975, 91.029 164.233 C 84.332 189.329, 84.700 179.731, 84.296 339.868 L 83.930 485.237 86.893 482.744 C 88.522 481.373, 97.325 473.332, 106.455 464.875 C 115.585 456.419, 124.167 449.076, 125.527 448.557 C 127.076 447.966, 128.915 447.966, 130.448 448.557 C 131.795 449.076, 143.489 459.307, 156.436 471.294 L 179.975 493.088 203.504 471.294 C 216.445 459.307, 228.151 449.076, 229.517 448.557 C 231.072 447.966, 232.915 447.966, 234.448 448.557 C 235.795 449.076, 247.496 459.314, 260.451 471.308 L 284.006 493.117 303.756 474.808 C 333.563 447.176, 332.572 448, 336.012 448 C 338.606 448, 342.762 451.404, 363.507 470.516 L 387.946 493.033 411.507 471.266 C 424.466 459.295, 436.178 449.076, 437.534 448.557 C 439.079 447.966, 440.915 447.966, 442.448 448.557 C 443.795 449.076, 452.683 456.668, 462.198 465.428 C 471.714 474.189, 480.528 482.270, 481.785 483.386 L 484.070 485.415 483.704 339.957 C 483.375 209.450, 483.166 193.526, 481.664 185.024 C 473.762 140.277, 453.261 101.412, 421.737 71.413 C 392.098 43.207, 355.904 25.273, 314.986 18.519 C 303.470 16.618, 275.465 15.785, 264.500 17.018 M 184.112 177.517 C 158.568 184.690, 143.071 210.656, 149.531 235.458 C 156.202 261.068, 182.440 276.985, 207.307 270.508 C 225.288 265.825, 239.323 251.200, 243.051 233.263 C 245.291 222.485, 242.156 205.110, 237.310 201.436 C 232.763 197.989, 225 201.604, 225 207.169 C 225 208.832, 225.730 212.703, 226.622 215.771 C 229.630 226.120, 226.308 238.626, 218.467 246.467 C 206.308 258.625, 185.692 258.625, 173.533 246.467 C 161.375 234.308, 161.375 213.692, 173.533 201.533 C 181.374 193.692, 193.880 190.370, 204.229 193.378 C 207.297 194.270, 211.168 195, 212.831 195 C 218.396 195, 222.011 187.237, 218.564 182.690 C 214.586 177.443, 194.901 174.487, 184.112 177.517 M 360.112 177.517 C 334.568 184.690, 319.071 210.656, 325.531 235.458 C 332.202 261.068, 358.440 276.985, 383.307 270.508 C 401.288 265.825, 415.323 251.200, 419.051 233.263 C 421.291 222.485, 418.156 205.110, 413.310 201.436 C 408.763 197.989, 401 201.604, 401 207.169 C 401 208.832, 401.730 212.703, 402.622 215.771 C 405.630 226.120, 402.308 238.626, 394.467 246.467 C 382.308 258.625, 361.692 258.625, 349.533 246.467 C 337.375 234.308, 337.375 213.692, 349.533 201.533 C 357.374 193.692, 369.880 190.370, 380.229 193.378 C 383.297 194.270, 387.168 195, 388.831 195 C 394.396 195, 398.011 187.237, 394.564 182.690 C 390.586 177.443, 370.901 174.487, 360.112 177.517 M 1.762 511.707 C 3.006 511.946, 4.806 511.937, 5.762 511.687 C 6.718 511.437, 5.700 511.241, 3.500 511.252 C 1.300 511.263, 0.518 511.468, 1.762 511.707 M 12.750 511.737 C 15.638 511.939, 20.363 511.939, 23.250 511.737 C 26.138 511.535, 23.775 511.370, 18 511.370 C 12.225 511.370, 9.863 511.535, 12.750 511.737 " stroke="none" fill-rule="evenodd"/>
</svg>
