<?xml version="1.0" encoding="iso-8859-1"?>

<svg version="1.1" xmlns="http://www.w3.org/2000/svg" xmlns:xlink="http://www.w3.org/1999/xlink" x="0px" y="0px"
	 viewBox="0 0 463.077 463.077" style="enable-background:new 0 0 463.077 463.077;" xml:space="preserve" fill="url(#svg_grd)">
	 <linearGradient id="svg_grd" gradientUnits="userSpaceOnUse"
	 x1="0" y1="463.077" x2="463.077" y2="0">
	     <stop offset="0" stop-color="#c63e00"/>
	     <stop offset="1" stop-color="#ff9000"/>
	 </linearGradient>
<g>
	<path d="M267.22,273.363c-1.326-2.298-3.512-3.974-6.075-4.66c-2.563-0.685-5.294-0.326-7.591,1.003
		c-6.654,3.848-14.267,5.882-22.016,5.882c-7.751,0-15.371-2.039-22.035-5.896c-2.298-1.331-5.03-1.689-7.593-1.006
		c-2.563,0.686-4.75,2.362-6.077,4.661L128.461,390.04c-1.327,2.298-1.686,5.029-0.998,7.592s2.366,4.747,4.665,6.072
		c29.695,17.111,63.507,26.319,97.782,26.627c0.591,0.005,1.179,0.008,1.769,0.008c34.716,0,68.989-9.205,99.228-26.665
		c4.782-2.762,6.421-8.877,3.659-13.66L267.22,273.363z M231.68,410.34c-0.529,0-1.061-0.002-1.589-0.007
		c-27.496-0.248-54.662-6.861-79.165-19.204l57.619-99.8c7.302,2.803,15.104,4.26,22.993,4.26c7.884,0,15.676-1.452,22.967-4.247
		l57.602,99.773C287.145,403.728,259.568,410.34,231.68,410.34z"/>
	<path d="M187.489,231.538c0-15.673,8.436-30.292,22.014-38.153c4.776-2.765,6.409-8.875,3.65-13.654L145.781,63.037
		c-1.327-2.298-3.513-3.975-6.076-4.66c-2.563-0.686-5.294-0.325-7.591,1.004c-29.664,17.16-54.542,41.837-71.946,71.366
		c-17.935,30.428-27.414,65.281-27.414,100.792c0,5.523,4.478,10,10,10h134.735C183.012,241.538,187.489,237.061,187.489,231.538z
		 M53.032,221.538c1.588-28.455,9.93-56.145,24.365-80.636c13.962-23.688,33.271-43.906,56.208-58.954l57.628,99.815
		c-12.263,9.961-20.47,24.182-22.952,39.775H53.032z"/>
	<path d="M404.486,133.537c-17.384-30.746-42.828-56.381-73.581-74.135c-4.784-2.761-10.899-1.122-13.66,3.661l-67.346,116.652
		c-2.76,4.781-1.124,10.894,3.654,13.657c13.591,7.859,22.034,22.484,22.034,38.167c0,5.523,4.478,10,10,10h134.727
		c2.653,0,5.198-1.055,7.074-2.932c1.875-1.877,2.928-4.422,2.926-7.076C430.288,197.26,421.357,163.375,404.486,133.537z
		 M294.796,221.538c-2.484-15.603-10.699-29.833-22.975-39.795l57.605-99.779c23.849,15.601,43.657,36.67,57.649,61.417
		c13.534,23.936,21.389,50.769,22.949,78.158H294.796z"/>
	<path d="M197.811,231.539c0,18.598,15.131,33.728,33.729,33.728s33.728-15.13,33.728-33.728s-15.13-33.728-33.728-33.728
		S197.811,212.941,197.811,231.539z M231.539,217.811c7.569,0,13.728,6.158,13.728,13.728s-6.158,13.728-13.728,13.728
		c-7.57,0-13.729-6.158-13.729-13.728S223.969,217.811,231.539,217.811z"/>
	<path d="M395.262,67.816C351.529,24.084,293.386,0,231.539,0S111.548,24.084,67.816,67.816C24.084,111.548,0,169.692,0,231.539
		s24.084,119.991,67.816,163.723c43.731,43.732,101.876,67.816,163.723,67.816s119.99-24.084,163.723-67.816
		c43.731-43.732,67.815-101.876,67.815-163.723S438.993,111.548,395.262,67.816z M231.539,443.077
		C114.896,443.077,20,348.181,20,231.539S114.896,20,231.539,20s211.538,94.896,211.538,211.539S348.182,443.077,231.539,443.077z"
		/>
</g>
<g>
</g>
<g>
</g>
<g>
</g>
<g>
</g>
<g>
</g>
<g>
</g>
<g>
</g>
<g>
</g>
<g>
</g>
<g>
</g>
<g>
</g>
<g>
</g>
<g>
</g>
<g>
</g>
<g>
</g>
</svg>
