<?xml version="1.0" encoding="iso-8859-1"?>

<svg height="512pt" viewBox="0 0 512 512" width="512pt" xmlns="http://www.w3.org/2000/svg" fill="url(#svg_grd)">
  <linearGradient id="svg_grd" gradientUnits="userSpaceOnUse"
	x1="0" y1="512" x2="512" y2="0">
			<stop offset="0" stop-color="#c63e00"/>
			<stop offset="1" stop-color="#ff9000"/>
	</linearGradient>
  <path d="m497 0h-482c-8.285156 0-15 6.714844-15 15v301c0 8.285156 6.714844 15 15 15s15-6.714844 15-15v-286h452v91h-106c-8.285156 0-15 6.714844-15 15s6.714844 15 15 15h46v30h-91v-45c0-8.285156-6.714844-15-15-15s-15 6.714844-15 15v45h-45c-8.285156 0-15 6.714844-15 15v45h-45c-8.285156 0-15 6.714844-15 15v60c0 8.285156 6.714844 15 15 15s15-6.714844 15-15v-45h45c8.285156 0 15-6.714844 15-15v-45h151v45c0 8.285156 6.714844 15 15 15s15-6.714844 15-15v-105h45c8.285156 0 15-6.714844 15-15v-121c0-8.285156-6.714844-15-15-15zm0 0"/><path d="m497 181c-8.285156 0-15 6.714844-15 15v165h-30v-45c0-8.285156-6.714844-15-15-15h-46v-45c0-8.285156-6.714844-15-15-15h-60c-8.285156 0-15 6.714844-15 15v60c0 8.285156 6.714844 15 15 15s15-6.714844 15-15v-45h30v90h-90v-45c0-8.285156-6.714844-15-15-15s-15 6.714844-15 15v106h-30v-46c0-8.285156-6.714844-15-15-15h-46v-105c0-8.285156-6.714844-15-15-15s-15 6.714844-15 15v45h-30v-211h30v106c0 8.285156 6.714844 15 15 15h61c8.285156 0 15-6.714844 15-15v-60c0-8.285156-6.714844-15-15-15s-15 6.714844-15 15v45h-31v-91h91v46c0 8.285156 6.714844 15 15 15s15-6.714844 15-15v-46h166c8.285156 0 15-6.714844 15-15s-6.714844-15-15-15h-362c-8.285156 0-15 6.714844-15 15v362c0 8.285156 6.714844 15 15 15h60c8.285156 0 15-6.714844 15-15s-6.714844-15-15-15h-45v-91h30v45c0 8.285156 6.714844 15 15 15h46v46c0 8.285156 6.714844 15 15 15h60c8.285156 0 15-6.714844 15-15v-46h105c8.285156 0 15-6.714844 15-15v-45h31v91h-106c-8.285156 0-15 6.714844-15 15s6.714844 15 15 15h121c8.285156 0 15-6.714844 15-15v-46h30v91h-452v-106c0-8.285156-6.714844-15-15-15s-15 6.714844-15 15v121c0 8.285156 6.714844 15 15 15h482c8.285156 0 15-6.714844 15-15v-301c0-8.285156-6.714844-15-15-15zm0 0"/></svg>
