<?xml version="1.0" standalone="no"?>

<svg version="1.0" xmlns="http://www.w3.org/2000/svg" viewBox="0 0 512 512"
 preserveAspectRatio="xMidYMid meet" fill="url(#svg_grd)">
 <linearGradient id="svg_grd" gradientTransform="rotate(45)">
     <stop offset="0" stop-color="#c63e00"/>
     <stop offset="1" stop-color="#ff9000"/>
 </linearGradient>
<g transform="translate(0, 512) scale(0.100000,-0.100000)"
stroke="none">
<path d="M2380 5114 c-19 -2 -78 -9 -130 -14 -330 -36 -695 -160 -990 -336
-375 -224 -680 -529 -904 -904 -175 -292 -291 -632 -338 -990 -16 -123 -16
-497 0 -620 82 -623 356 -1150 820 -1581 256 -239 575 -425 922 -539 274 -91
491 -124 800 -124 228 0 329 9 530 50 689 141 1304 583 1674 1204 175 292 291
632 338 990 16 123 16 497 0 620 -47 358 -163 698 -338 990 -224 375 -529 680
-904 904 -289 173 -634 291 -980 336 -88 12 -438 21 -500 14z m80 -374 c0
-137 -3 -180 -12 -180 -7 0 -53 -5 -103 -10 -458 -51 -874 -251 -1199 -576
-325 -325 -525 -741 -576 -1199 -5 -49 -10 -96 -10 -102 0 -10 -43 -13 -180
-13 l-181 0 5 33 c3 17 8 68 11 112 9 106 48 307 84 425 167 550 526 1022
1014 1329 306 193 673 317 1032 350 50 5 96 9 103 10 9 1 12 -41 12 -179z
m345 165 c106 -9 307 -48 425 -84 640 -194 1161 -639 1456 -1245 111 -227 201
-547 219 -771 3 -44 8 -95 11 -112 l5 -33 -181 0 c-137 0 -180 3 -180 13 0 36
-22 202 -36 272 -144 731 -699 1338 -1409 1538 -135 38 -355 76 -442 77 -10 0
-13 43 -13 180 l0 181 33 -5 c17 -3 68 -8 112 -11z m-345 -1140 c0 -638 0
-638 49 -665 25 -13 77 -13 102 0 49 27 49 27 49 665 l0 596 63 -6 c585 -58
1094 -384 1395 -895 129 -218 205 -458 237 -742 l6 -58 -596 0 c-512 0 -600
-2 -625 -15 -35 -18 -50 -43 -50 -85 0 -42 15 -67 50 -85 25 -13 113 -15 625
-15 l596 0 -6 -57 c-50 -447 -215 -801 -515 -1104 -308 -312 -668 -483 -1122
-534 l-58 -6 0 596 c0 638 0 638 -49 665 -25 13 -77 13 -102 0 -49 -27 -49
-27 -49 -665 l0 -596 -57 6 c-347 39 -626 142 -888 330 -425 304 -698 779
-750 1303 l-6 62 596 0 c638 0 638 0 665 49 13 25 13 77 0 102 -27 49 -27 49
-665 49 l-596 0 6 63 c79 803 676 1460 1461 1606 98 18 136 24 212 29 l22 2 0
-595z m-1900 -1317 c0 -7 5 -53 10 -103 51 -458 251 -874 576 -1199 325 -325
741 -525 1199 -576 50 -5 96 -10 103 -10 9 0 12 -43 12 -180 l0 -181 -32 5
c-18 3 -69 8 -113 11 -106 9 -307 48 -425 84 -550 167 -1022 526 -1329 1014
-188 298 -321 684 -346 1002 -3 44 -8 95 -11 113 l-5 32 181 0 c137 0 180 -3
180 -12z m4356 -20 c-3 -18 -8 -69 -11 -113 -9 -106 -48 -307 -84 -425 -190
-626 -628 -1147 -1211 -1440 -249 -125 -560 -216 -805 -235 -44 -3 -95 -8
-112 -11 l-33 -5 0 181 c0 137 3 180 13 180 6 0 53 5 102 10 458 51 874 251
1199 576 325 325 525 741 576 1199 5 50 10 96 10 103 0 9 43 12 180 12 l181 0
-5 -32z"/>
<path d="M2996 3889 c-17 -19 -26 -43 -26 -64 0 -21 9 -45 26 -64 22 -26 33
-31 70 -31 60 0 94 34 94 95 0 59 -36 95 -95 95 -36 0 -48 -5 -69 -31z"/>
<path d="M3293 3770 c-23 -13 -34 -29 -39 -54 -11 -59 2 -82 79 -142 198 -157
338 -349 427 -588 36 -95 66 -126 122 -126 44 0 90 48 90 92 0 71 -86 275
-173 408 -95 147 -248 308 -371 389 -68 46 -89 49 -135 21z"/>
<path d="M2497 2850 c-139 -35 -231 -151 -231 -290 1 -262 320 -393 502 -207
144 147 102 389 -83 473 -59 27 -135 37 -188 24z m99 -205 c77 -32 77 -138 -1
-170 -31 -14 -39 -14 -70 0 -50 20 -71 71 -51 120 10 23 27 41 48 50 41 18 33
18 74 0z"/>
</g>
</svg>
